{
  "source": "C:\\Users\\Peter\\Desktop\\stuff\\MIUN\\quantitative_research\\video_compression\\videos\\HEVC_CLASS_B\\ParkScene_1920x1080_24.y4m",
  "output": "C:\\Users\\Peter\\Desktop\\stuff\\MIUN\\quantitative_research\\video_compression\\compressed_videos\\HEVC_CLASS_B\\h264\\1.5\\ParkScene_1920x1080_24_h264.mp4",
  "codec": "h264",
  "ok": "Input #0, yuv4mpegpipe, from 'C:\\Users\\Peter\\Desktop\\stuff\\MIUN\\quantitative_research\\video_compression\\videos\\HEVC_CLASS_B\\ParkScene_1920x1080_24.y4m':\n  Duration: 00:00:10.00, start: 0.000000, bitrate: 597198 kb/s\n  Stream #0:0: Video: rawvideo (I420 / 0x30323449), yuv420p(progressive), 1920x1080, 24 fps, 24 tbr, 24 tbn\n[out#0/mp4 @ 000001b293dd9a40] Codec AVOption b:a (set bitrate (in bits/s)) has not been used for any stream. The most likely reason is either wrong type (e.g. a video option with no video streams) or that it is a private option of some decoder which was not actually used for any stream.\nStream mapping:\n  Stream #0:0 -> #0:0 (rawvideo (native) -> h264 (libx264))\nPress [q] to stop, [?] for help\n[libx264 @ 000001b293ddcac0] using cpu capabilities: MMX2 SSE2Fast SSSE3 SSE4.2 AVX FMA3 BMI2 AVX2\n[libx264 @ 000001b293ddcac0] profile High, level 5.0, 4:2:0, 8-bit\n[libx264 @ 000001b293ddcac0] 264 - core 165 r3222 b35605a - H.264/MPEG-4 AVC codec - Copyleft 2003-2025 - http://www.videolan.org/x264.html - options: cabac=1 ref=5 deblock=1:0:0 analyse=0x3:0x113 me=hex subme=8 psy=1 psy_rd=1.00:0.00 mixed_ref=1 me_range=16 chroma_me=1 trellis=2 8x8dct=1 cqm=0 deadzone=21,11 fast_pskip=1 chroma_qp_offset=-2 threads=18 lookahead_threads=3 sliced_threads=0 nr=0 decimate=1 interlaced=0 bluray_compat=0 constrained_intra=0 bframes=3 b_pyramid=2 b_adapt=1 b_bias=0 direct=3 weightb=1 open_gop=0 weightp=2 keyint=250 keyint_min=24 scenecut=40 intra_refresh=0 rc_lookahead=50 rc=cbr mbtree=1 bitrate=1500 ratetol=1.0 qcomp=0.60 qpmin=0 qpmax=69 qpstep=4 vbv_maxrate=1500 vbv_bufsize=1500 nal_hrd=none filler=0 ip_ratio=1.40 aq=1:1.00\nOutput #0, mp4, to 'C:\\Users\\Peter\\Desktop\\stuff\\MIUN\\quantitative_research\\video_compression\\compressed_videos\\HEVC_CLASS_B\\h264\\1.5\\ParkScene_1920x1080_24_h264.mp4':\n  Metadata:\n    encoder         : Lavf62.3.100\n  Stream #0:0: Video: h264 (avc1 / 0x31637661), yuv420p(tv, progressive), 1920x1080, q=2-31, 1500 kb/s, 24 fps, 12288 tbn\n    Metadata:\n      encoder         : Lavc62.11.100 libx264\n    Side data:\n      cpb: bitrate max/min/avg: 1500000/0/1500000 buffer size: 1500000 vbv_delay: N/A\nframe=    0 fps=0.0 q=0.0 size=       0KiB time=N/A bitrate=N/A speed=N/A elapsed=0:00:00.51    \nframe=   20 fps= 20 q=38.0 size=       0KiB time=00:00:00.70 bitrate=   0.5kbits/s speed=0.694x elapsed=0:00:01.02    \nframe=   56 fps= 36 q=39.0 size=     256KiB time=00:00:02.25 bitrate= 932.2kbits/s speed=1.46x elapsed=0:00:01.53    \nframe=   91 fps= 44 q=39.0 size=     512KiB time=00:00:03.54 bitrate=1184.4kbits/s speed=1.71x elapsed=0:00:02.07    \nframe=  124 fps= 48 q=39.0 size=     512KiB time=00:00:05.08 bitrate= 825.2kbits/s speed=1.96x elapsed=0:00:02.59    \nframe=  162 fps= 52 q=38.0 size=     768KiB time=00:00:06.54 bitrate= 961.8kbits/s speed=2.09x elapsed=0:00:03.12    \nframe=  200 fps= 55 q=38.0 size=    1024KiB time=00:00:08.16 bitrate=1027.2kbits/s speed=2.23x elapsed=0:00:03.66    \n[mp4 @ 000001b293dd9b40] Starting second pass: moving the moov atom to the beginning of the file\n[out#0/mp4 @ 000001b293dd9a40] video:1386KiB audio:0KiB subtitle:0KiB other streams:0KiB global headers:0KiB muxing overhead: 0.264069%\nframe=  240 fps= 57 q=-1.0 Lsize=    1390KiB time=00:00:09.91 bitrate=1148.0kbits/s speed=2.37x elapsed=0:00:04.18    \n[libx264 @ 000001b293ddcac0] frame I:1     Avg QP:36.83  size: 53795\n[libx264 @ 000001b293ddcac0] frame P:60    Avg QP:36.77  size: 14083\n[libx264 @ 000001b293ddcac0] frame B:179   Avg QP:42.97  size:  2904\n[libx264 @ 000001b293ddcac0] consecutive B-frames:  0.4%  0.0%  1.2% 98.3%\n[libx264 @ 000001b293ddcac0] mb I  I16..4: 30.8% 60.9%  8.3%\n[libx264 @ 000001b293ddcac0] mb P  I16..4:  0.4%  1.1%  0.1%  P16..4: 33.2%  5.8%  6.0%  0.0%  0.0%    skip:53.4%\n[libx264 @ 000001b293ddcac0] mb B  I16..4:  0.0%  0.0%  0.0%  B16..8: 39.3%  0.7%  0.1%  direct: 0.1%  skip:59.8%  L0:37.6% L1:62.1% BI: 0.3%\n[libx264 @ 000001b293ddcac0] 8x8 transform intra:65.0% inter:66.3%\n[libx264 @ 000001b293ddcac0] direct mvs  spatial:94.4% temporal:5.6%\n[libx264 @ 000001b293ddcac0] coded y,uvDC,uvAC intra: 45.5% 35.2% 10.4% inter: 2.7% 2.1% 0.1%\n[libx264 @ 000001b293ddcac0] i16 v,h,dc,p: 41% 25%  5% 29%\n[libx264 @ 000001b293ddcac0] i8 v,h,dc,ddl,ddr,vr,hd,vl,hu:  9%  4%  5% 12% 17% 16% 14% 12% 11%\n[libx264 @ 000001b293ddcac0] i4 v,h,dc,ddl,ddr,vr,hd,vl,hu:  8%  5%  6% 13% 16% 13% 14% 10% 15%\n[libx264 @ 000001b293ddcac0] i8c dc,h,v,p: 54% 28% 12%  6%\n[libx264 @ 000001b293ddcac0] Weighted P-Frames: Y:0.0% UV:0.0%\n[libx264 @ 000001b293ddcac0] ref P L0: 61.8% 13.1% 18.0%  3.4%  3.7%\n[libx264 @ 000001b293ddcac0] ref B L0: 94.7%  4.3%  0.9%  0.2%\n[libx264 @ 000001b293ddcac0] ref B L1: 98.1%  1.9%\n[libx264 @ 000001b293ddcac0] kb/s:1134.85\n",
  "seconds": 4.316186189651489,
  "probe_out": {}
}